<svg width="1719" height="666" viewBox="0 0 1719 666" fill="none" xmlns="http://www.w3.org/2000/svg">
<rect width="1719" height="666" fill="#252831"/>
<path d="M281.937 352.415L281.995 352.297C304.157 285.287 324.978 263.187 355.072 273.883L355.131 273.883C366.795 284.578 381.259 298.169 399.339 316.31C402.371 320.801 405.404 325.292 408.378 329.842C422.376 346.21 437.131 369.315 458.127 376.642C477.606 383.438 488.571 364.706 500.76 353.36C511.725 343.138 520.939 335.751 520.939 335.751L516.332 345.619L475.973 432.011C463.726 457.775 440.397 508.534 405.404 498.962C387.616 494.116 373.677 478.575 363.237 464.275C336.118 426.87 309.056 389.643 281.937 352.415Z" fill="url(#paint0_linear_2017_124)"/>
<path d="M538.659 244.628C538.659 244.628 521.172 293.563 504.268 340.984V341.042C482.818 360.849 455.247 389.86 431.348 406.871C414.036 419.222 394.159 437.805 371.601 428.484C360.526 423.882 358.369 422.717 349.567 414.911C346.944 412.639 327.475 394.404 324.969 392.016C355.105 402.56 375.914 380.831 398.064 314.71L432.455 209.791L453.381 140L538.659 244.628Z" fill="url(#paint1_linear_2017_124)"/>
<path d="M141.462 421.276C141.462 421.276 158.949 372.341 175.853 324.921L175.853 324.862C197.304 305.055 224.875 276.044 248.774 259.033C266.086 246.683 285.962 228.099 308.521 237.42C319.596 242.022 321.752 243.187 330.554 250.994C333.177 253.266 352.646 271.5 355.152 273.888C325.017 263.344 304.207 285.074 282.057 351.194L247.666 456.113L226.74 525.904L141.462 421.276Z" fill="url(#paint2_linear_2017_124)"/>
<path d="M495.345 191.498L478.149 248.764L443.758 353.683C440.261 364.053 436.822 373.316 433.383 381.53C429.944 384.501 426.446 387.414 422.832 390.21C414.614 396.676 405.754 402.677 395.961 406.347C381.796 411.707 366.816 409.959 352.71 405.473C346.415 403.434 339.42 400.929 333.766 397.376C330.851 395.57 328.403 393.123 325.022 392.132C324.964 392.074 324.906 392.016 324.906 392.016C355.042 402.56 375.851 380.831 398.001 314.71L432.392 209.791L453.376 140L495.345 191.498Z" fill="url(#paint3_linear_2017_124)"/>
<path d="M539.881 309.408L469.059 446.194C457.517 473.166 435.95 505.964 406.397 499.265C388.386 495.187 374.164 479.23 363.847 465.133C352.48 449.578 279.442 348.964 279.442 348.964C314.708 383.918 336.333 402.094 350.672 414.735C359.532 422.542 365.128 426.503 377.078 428.076C402.492 431.455 425.633 410.541 443.411 395.336C465.445 376.519 486.779 357.062 508.113 337.429C526.008 320.943 539.881 309.408 539.881 309.408Z" fill="url(#paint4_linear_2017_124)"/>
<path d="M539.999 309.468L525.543 337.431C521.754 340.751 517.674 344.48 513.302 348.499C491.968 368.132 467.751 396.916 443.53 417.631C425.751 432.836 411.235 445.169 385.821 441.79C373.93 440.159 364.722 433.612 355.862 425.805C342.98 414.445 324.211 398.541 294.949 370.054C286.322 358.17 280.26 349.898 279.619 349.024C314.884 383.919 336.451 402.153 350.791 414.737C359.651 422.543 365.247 426.504 377.196 428.135C402.61 431.514 425.693 410.542 443.53 395.337C465.563 376.521 486.897 357.121 508.231 337.489C526.126 321.002 539.999 309.468 539.999 309.468Z" fill="url(#paint5_linear_2017_124)"/>
<path d="M140.116 356.453L210.938 219.668C222.479 192.695 244.046 159.897 273.599 166.596C291.611 170.674 305.309 186.811 315.626 200.909C326.993 216.464 401.312 318.152 401.312 318.152C366.047 283.198 343.664 263.768 329.324 251.126C320.464 243.32 314.869 239.358 302.919 237.785C277.505 234.407 254.364 255.32 236.585 270.525C214.552 289.342 193.218 308.8 171.884 328.432C153.989 344.918 140.116 356.453 140.116 356.453Z" fill="url(#paint6_linear_2017_124)"/>
<path d="M325.201 392.191C325.9 392.832 326.541 393.414 327.182 393.997C326.483 393.414 325.725 392.774 325.026 392.133C325.084 392.133 325.142 392.191 325.201 392.191Z" fill="#FF5215"/>
<path d="M354.928 273.672C354.229 273.031 353.588 272.449 352.946 271.866C353.646 272.449 354.404 273.09 355.103 273.73C355.045 273.73 354.987 273.672 354.928 273.672Z" fill="#FF5215"/>
<path d="M516.099 307.661C512.31 318.38 508.289 329.682 504.267 340.984C484.215 359.393 464.105 377.568 443.412 395.278C425.575 410.483 402.493 431.455 377.078 428.077C365.129 426.445 359.533 422.484 350.673 414.678C342.105 407.163 333.536 399.706 325.026 392.132C328.406 393.123 330.855 395.628 333.769 397.434C339.423 400.929 346.418 403.434 352.713 405.473C366.819 410.017 381.8 411.707 395.906 406.405C405.757 402.677 414.559 396.735 422.836 390.268C428.432 385.899 433.736 381.239 439.157 376.695C461.19 357.878 482.524 338.479 503.858 318.846C508.23 314.768 512.31 311.04 516.099 307.661Z" fill="url(#paint7_linear_2017_124)"/>
<path d="M163.899 358.201C167.687 347.482 171.709 336.18 175.731 324.879C195.783 306.47 215.893 288.294 236.586 270.584C254.422 255.379 277.505 234.407 302.92 237.786C314.869 239.417 320.465 243.378 329.325 251.185C337.893 258.7 346.462 266.157 354.972 273.73C351.591 272.739 349.143 270.234 346.229 268.429C340.575 264.933 333.58 262.428 327.285 260.389C313.178 255.845 298.198 254.156 284.092 259.457C274.241 263.185 265.439 269.128 257.162 275.594C251.566 279.963 246.262 284.624 240.841 289.168C218.807 307.984 197.473 327.384 176.139 347.016C171.768 351.094 167.687 354.822 163.899 358.201Z" fill="url(#paint8_linear_2017_124)"/>
<path d="M325.201 392.191C325.9 392.832 326.541 393.414 327.182 393.997C326.483 393.414 325.725 392.774 325.026 392.133C325.084 392.133 325.142 392.191 325.201 392.191Z" fill="#4E4EB5"/>
<path d="M354.928 273.672C354.229 273.031 353.588 272.449 352.946 271.866C353.646 272.449 354.404 273.09 355.103 273.73C355.045 273.73 354.987 273.672 354.928 273.672Z" fill="#4E4EB5"/>
<path d="M140 356.395L154.456 328.433C158.244 325.112 162.325 321.384 166.696 317.364C188.03 297.732 212.248 268.947 236.469 248.232C254.248 233.027 268.764 220.695 294.178 224.073C306.069 225.705 315.277 232.252 324.137 240.058C337.019 251.418 355.788 267.322 385.05 295.809C393.677 307.693 397.385 314.088 398.026 314.962C362.761 280.066 343.547 263.71 329.208 251.127C320.348 243.32 314.752 239.359 302.803 237.728C277.389 234.349 254.306 255.321 236.469 270.526C214.436 289.343 193.102 308.742 171.768 328.374C153.873 344.861 140 356.395 140 356.395Z" fill="url(#paint9_linear_2017_124)"/>
<path d="M185.002 474.501L202.197 417.235L236.588 312.316C240.086 301.946 243.525 292.683 246.964 284.469C250.403 281.498 253.9 278.585 257.514 275.789C265.733 269.323 274.593 263.322 284.386 259.652C298.55 254.292 313.531 256.04 327.637 260.526C333.932 262.565 340.927 265.07 346.581 268.623C349.496 270.429 351.944 272.876 355.325 273.867C355.383 273.925 355.441 273.983 355.441 273.983C325.305 263.439 304.496 285.168 282.346 351.289L247.955 456.208L226.971 525.999L185.002 474.501Z" fill="url(#paint10_linear_2017_124)"/>
<path d="M613.6 415V266H630L715.6 386.4L708.2 387.2V266H728V415H711.6L626.4 293.8L633.2 293V415H613.6ZM751.056 415V307.2H769.656V415H751.056ZM751.056 290V266H769.656V290H751.056ZM834.317 416.2C823.784 416.2 815.651 413.2 809.917 407.2C804.317 401.2 801.517 392.733 801.517 381.8V325H781.917V307.2H785.917C790.717 307.2 794.517 305.733 797.317 302.8C800.117 299.867 801.517 296 801.517 291.2V282.4H820.117V307.2H844.317V325H820.117V381.2C820.117 384.8 820.651 387.933 821.717 390.6C822.917 393.267 824.851 395.4 827.517 397C830.184 398.467 833.717 399.2 838.117 399.2C839.051 399.2 840.184 399.133 841.517 399C842.984 398.867 844.317 398.733 845.517 398.6V415C843.784 415.4 841.851 415.667 839.717 415.8C837.584 416.067 835.784 416.2 834.317 416.2ZM861.814 415V307.2H880.014V327L878.014 324.2C880.547 318.067 884.414 313.533 889.614 310.6C894.814 307.533 901.147 306 908.614 306H915.214V323.6H905.814C898.214 323.6 892.081 326 887.414 330.8C882.747 335.467 880.414 342.133 880.414 350.8V415H861.814ZM974.936 417.4C964.536 417.4 955.136 415 946.736 410.2C938.336 405.267 931.669 398.533 926.736 390C921.803 381.467 919.336 371.8 919.336 361C919.336 350.2 921.736 340.6 926.536 332.2C931.469 323.8 938.136 317.133 946.536 312.2C954.936 307.267 964.403 304.8 974.936 304.8C985.336 304.8 994.736 307.267 1003.14 312.2C1011.54 317 1018.14 323.6 1022.94 332C1027.87 340.4 1030.34 350.067 1030.34 361C1030.34 371.933 1027.8 381.667 1022.74 390.2C1017.67 398.6 1010.94 405.267 1002.54 410.2C994.269 415 985.069 417.4 974.936 417.4ZM974.936 399.4C981.603 399.4 987.603 397.733 992.936 394.4C998.403 391.067 1002.67 386.467 1005.74 380.6C1008.94 374.733 1010.54 368.2 1010.54 361C1010.54 353.667 1008.94 347.2 1005.74 341.6C1002.67 335.867 998.403 331.333 992.936 328C987.603 324.533 981.603 322.8 974.936 322.8C968.136 322.8 962.003 324.533 956.536 328C951.203 331.333 946.936 335.867 943.736 341.6C940.536 347.2 938.936 353.667 938.936 361C938.936 368.2 940.536 374.733 943.736 380.6C946.936 386.467 951.203 391.067 956.536 394.4C962.003 397.733 968.136 399.4 974.936 399.4ZM1034.4 415L1087.8 266H1111L1164.4 415H1143.4L1131.2 380H1067.6L1055.4 415H1034.4ZM1073.8 362H1125L1096.6 280.2H1102.2L1073.8 362ZM1220.46 459C1212.86 459 1205.8 457.8 1199.26 455.4C1192.86 453 1187.33 449.667 1182.66 445.4C1178.13 441.267 1174.66 436.4 1172.26 430.8L1189.66 422.8C1191.53 427.867 1195.06 432.133 1200.26 435.6C1205.6 439.2 1212.26 441 1220.26 441C1226.4 441 1231.93 439.8 1236.86 437.4C1241.93 435.133 1245.93 431.667 1248.86 427C1251.8 422.467 1253.26 416.933 1253.26 410.4V386.2L1256.66 389.8C1252.93 397.133 1247.53 402.733 1240.46 406.6C1233.53 410.467 1225.86 412.4 1217.46 412.4C1207.33 412.4 1198.26 410.067 1190.26 405.4C1182.26 400.6 1176 394.133 1171.46 386C1166.93 377.733 1164.66 368.6 1164.66 358.6C1164.66 348.467 1166.93 339.333 1171.46 331.2C1176 323.067 1182.2 316.667 1190.06 312C1198.06 307.2 1207.13 304.8 1217.26 304.8C1225.66 304.8 1233.26 306.733 1240.06 310.6C1247 314.333 1252.53 319.533 1256.66 326.2L1253.86 331.2V307.2H1272.06V410.4C1272.06 419.733 1269.86 428.067 1265.46 435.4C1261.06 442.733 1254.93 448.467 1247.06 452.6C1239.33 456.867 1230.46 459 1220.46 459ZM1219.06 394.4C1225.46 394.4 1231.2 392.8 1236.26 389.6C1241.46 386.4 1245.6 382.133 1248.66 376.8C1251.73 371.333 1253.26 365.267 1253.26 358.6C1253.26 352.067 1251.73 346.067 1248.66 340.6C1245.6 335.133 1241.46 330.8 1236.26 327.6C1231.2 324.4 1225.46 322.8 1219.06 322.8C1212.53 322.8 1206.6 324.4 1201.26 327.6C1195.93 330.8 1191.73 335.133 1188.66 340.6C1185.73 345.933 1184.26 351.933 1184.26 358.6C1184.26 365.267 1185.73 371.333 1188.66 376.8C1191.73 382.133 1195.86 386.4 1201.06 389.6C1206.4 392.8 1212.4 394.4 1219.06 394.4ZM1292.9 415V307.2H1311.5V415H1292.9ZM1292.9 290V266H1311.5V290H1292.9ZM1332.36 415V263.6H1350.96V415H1332.36ZM1371.82 415V307.2H1390.42V415H1371.82ZM1371.82 290V266H1390.42V290H1371.82ZM1455.08 416.2C1444.55 416.2 1436.42 413.2 1430.68 407.2C1425.08 401.2 1422.28 392.733 1422.28 381.8V325H1402.68V307.2H1406.68C1411.48 307.2 1415.28 305.733 1418.08 302.8C1420.88 299.867 1422.28 296 1422.28 291.2V282.4H1440.88V307.2H1465.08V325H1440.88V381.2C1440.88 384.8 1441.42 387.933 1442.48 390.6C1443.68 393.267 1445.62 395.4 1448.28 397C1450.95 398.467 1454.48 399.2 1458.88 399.2C1459.82 399.2 1460.95 399.133 1462.28 399C1463.75 398.867 1465.08 398.733 1466.28 398.6V415C1464.55 415.4 1462.62 415.667 1460.48 415.8C1458.35 416.067 1456.55 416.2 1455.08 416.2ZM1488.38 459C1485.98 459 1483.58 458.8 1481.18 458.4C1478.78 458.133 1476.51 457.533 1474.38 456.6V440C1475.85 440.133 1477.65 440.4 1479.78 440.8C1482.05 441.2 1484.25 441.4 1486.38 441.4C1492.65 441.4 1497.38 440 1500.58 437.2C1503.91 434.4 1507.05 429.667 1509.98 423L1516.78 406.8L1516.38 423L1470.38 307.2H1490.58L1526.38 399.2H1520.38L1555.98 307.2H1576.58L1527.98 427.8C1525.71 433.533 1522.78 438.8 1519.18 443.6C1515.71 448.4 1511.45 452.133 1506.38 454.8C1501.31 457.6 1495.31 459 1488.38 459Z" fill="white"/>
<defs>
<linearGradient id="paint0_linear_2017_124" x1="264.668" y1="156.885" x2="455.007" y2="533.466" gradientUnits="userSpaceOnUse">
<stop stop-color="#071BB3"/>
<stop offset="1" stop-color="#0859F7"/>
</linearGradient>
<linearGradient id="paint1_linear_2017_124" x1="511.19" y1="157.267" x2="486.613" y2="549.408" gradientUnits="userSpaceOnUse">
<stop stop-color="#1FB3FD"/>
<stop offset="0.291651" stop-color="#1888EA"/>
<stop offset="1" stop-color="#0725BE"/>
</linearGradient>
<linearGradient id="paint2_linear_2017_124" x1="168.931" y1="508.637" x2="193.508" y2="116.497" gradientUnits="userSpaceOnUse">
<stop stop-color="#1FB3FD"/>
<stop offset="0.291651" stop-color="#1888EA"/>
<stop offset="1" stop-color="#0725BE"/>
</linearGradient>
<linearGradient id="paint3_linear_2017_124" x1="495.345" y1="186.569" x2="410.211" y2="409.699" gradientUnits="userSpaceOnUse">
<stop stop-color="#22BCFE"/>
<stop offset="1" stop-color="#0A67EB"/>
</linearGradient>
<linearGradient id="paint4_linear_2017_124" x1="409.662" y1="309.408" x2="409.662" y2="500.147" gradientUnits="userSpaceOnUse">
<stop stop-color="#0F76F9"/>
<stop offset="1" stop-color="#23C2FE"/>
</linearGradient>
<linearGradient id="paint5_linear_2017_124" x1="409.809" y1="309.468" x2="375.779" y2="407.606" gradientUnits="userSpaceOnUse">
<stop stop-color="#199AFC"/>
<stop offset="1" stop-color="#22BDFE"/>
</linearGradient>
<linearGradient id="paint6_linear_2017_124" x1="270.337" y1="356.453" x2="270.337" y2="165.714" gradientUnits="userSpaceOnUse">
<stop stop-color="#0F76F9"/>
<stop offset="1" stop-color="#23C2FE"/>
</linearGradient>
<linearGradient id="paint7_linear_2017_124" x1="386.812" y1="489.292" x2="556.213" y2="257.476" gradientUnits="userSpaceOnUse">
<stop stop-color="#0047D1"/>
<stop offset="1" stop-color="#1587FD"/>
</linearGradient>
<linearGradient id="paint8_linear_2017_124" x1="293.186" y1="176.571" x2="123.784" y2="408.386" gradientUnits="userSpaceOnUse">
<stop stop-color="#0047D1"/>
<stop offset="1" stop-color="#066FDC"/>
</linearGradient>
<linearGradient id="paint9_linear_2017_124" x1="270.189" y1="356.395" x2="304.219" y2="258.257" gradientUnits="userSpaceOnUse">
<stop stop-color="#199AFC"/>
<stop offset="1" stop-color="#22BDFE"/>
</linearGradient>
<linearGradient id="paint10_linear_2017_124" x1="185.002" y1="479.43" x2="270.136" y2="256.3" gradientUnits="userSpaceOnUse">
<stop stop-color="#22BCFE"/>
<stop offset="1" stop-color="#0A67EB"/>
</linearGradient>
</defs>
</svg>
