<svg width="680" height="650" viewBox="0 0 680 650" fill="none" xmlns="http://www.w3.org/2000/svg">
<rect width="680" height="650" fill="black"/>
<path d="M281.937 344.415L281.995 344.297C304.157 277.287 324.978 255.187 355.072 265.883L355.131 265.883C366.795 276.578 381.259 290.169 399.338 308.31C402.371 312.801 405.404 317.292 408.378 321.842C422.375 338.21 437.131 361.315 458.127 368.642C477.606 375.438 488.571 356.706 500.76 345.36C511.724 335.138 520.939 327.751 520.939 327.751L516.332 337.619L475.973 424.011C463.726 449.775 440.397 500.534 405.404 490.962C387.616 486.116 373.677 470.575 363.237 456.275C336.118 418.87 309.056 381.643 281.937 344.415Z" fill="url(#paint0_linear_29_225)"/>
<path d="M538.659 236.628C538.659 236.628 521.172 285.563 504.268 332.984V333.042C482.818 352.849 455.247 381.86 431.348 398.871C414.036 411.222 394.159 429.805 371.601 420.484C360.526 415.882 358.369 414.717 349.567 406.911C346.944 404.639 327.475 386.404 324.969 384.016C355.105 394.56 375.914 372.831 398.064 306.71L432.455 201.791L453.381 132L538.659 236.628Z" fill="url(#paint1_linear_29_225)"/>
<path d="M141.462 413.276C141.462 413.276 158.949 364.341 175.853 316.921L175.853 316.862C197.304 297.055 224.875 268.044 248.774 251.033C266.086 238.683 285.962 220.099 308.521 229.42C319.596 234.022 321.752 235.187 330.554 242.994C333.177 245.266 352.646 263.5 355.152 265.888C325.017 255.344 304.207 277.074 282.057 343.194L247.666 448.113L226.74 517.904L141.462 413.276Z" fill="url(#paint2_linear_29_225)"/>
<path d="M495.345 183.498L478.149 240.764L443.759 345.683C440.261 356.053 436.822 365.316 433.383 373.53C429.944 376.501 426.446 379.414 422.832 382.21C414.614 388.676 405.754 394.677 395.961 398.347C381.797 403.707 366.816 401.959 352.71 397.473C346.415 395.434 339.42 392.929 333.766 389.376C330.851 387.57 328.403 385.123 325.022 384.132C324.964 384.074 324.906 384.016 324.906 384.016C355.042 394.56 375.851 372.831 398.001 306.71L432.392 201.791L453.376 132L495.345 183.498Z" fill="url(#paint3_linear_29_225)"/>
<path d="M539.881 301.408L469.059 438.194C457.517 465.166 435.95 497.964 406.397 491.265C388.386 487.187 374.164 471.23 363.847 457.133C352.481 441.578 279.442 340.964 279.442 340.964C314.708 375.918 336.333 394.094 350.672 406.735C359.532 414.542 365.128 418.503 377.078 420.076C402.492 423.455 425.633 402.541 443.411 387.336C465.445 368.519 486.779 349.062 508.113 329.429C526.008 312.943 539.881 301.408 539.881 301.408Z" fill="url(#paint4_linear_29_225)"/>
<path d="M539.999 301.468L525.543 329.431C521.754 332.751 517.674 336.48 513.302 340.499C491.968 360.132 467.751 388.916 443.53 409.631C425.751 424.836 411.235 437.169 385.821 433.79C373.93 432.159 364.722 425.612 355.862 417.805C342.98 406.445 324.211 390.541 294.949 362.054C286.322 350.17 280.26 341.898 279.619 341.024C314.884 375.919 336.451 394.153 350.791 406.737C359.651 414.543 365.246 418.504 377.196 420.135C402.61 423.514 425.693 402.542 443.53 387.337C465.563 368.521 486.897 349.121 508.231 329.489C526.126 313.002 539.999 301.468 539.999 301.468Z" fill="url(#paint5_linear_29_225)"/>
<path d="M140.116 348.453L210.938 211.668C222.479 184.695 244.046 151.897 273.599 158.596C291.611 162.674 305.309 178.811 315.626 192.909C326.993 208.464 401.312 310.152 401.312 310.152C366.047 275.198 343.664 255.768 329.324 243.126C320.464 235.32 314.869 231.358 302.919 229.785C277.505 226.407 254.364 247.32 236.585 262.525C214.552 281.342 193.218 300.8 171.884 320.432C153.989 336.918 140.116 348.453 140.116 348.453Z" fill="url(#paint6_linear_29_225)"/>
<path d="M325.201 384.191C325.9 384.832 326.541 385.414 327.182 385.997C326.483 385.414 325.725 384.774 325.026 384.133C325.084 384.133 325.142 384.191 325.201 384.191Z" fill="#FF5215"/>
<path d="M354.928 265.672C354.229 265.031 353.587 264.449 352.946 263.866C353.646 264.449 354.404 265.09 355.103 265.73C355.045 265.73 354.986 265.672 354.928 265.672Z" fill="#FF5215"/>
<path d="M516.099 299.661C512.311 310.38 508.289 321.682 504.267 332.984C484.215 351.393 464.105 369.568 443.412 387.278C425.575 402.483 402.493 423.455 377.078 420.077C365.129 418.445 359.533 414.484 350.673 406.678C342.105 399.163 333.536 391.706 325.026 384.132C328.406 385.123 330.855 387.628 333.769 389.434C339.423 392.929 346.418 395.434 352.713 397.473C366.819 402.017 381.8 403.707 395.906 398.405C405.757 394.677 414.559 388.735 422.836 382.268C428.432 377.899 433.736 373.239 439.157 368.695C461.19 349.878 482.524 330.479 503.858 310.846C508.23 306.768 512.311 303.04 516.099 299.661Z" fill="url(#paint7_linear_29_225)"/>
<path d="M163.898 350.201C167.687 339.482 171.709 328.18 175.731 316.879C195.783 298.47 215.893 280.294 236.586 262.584C254.422 247.379 277.505 226.407 302.919 229.786C314.869 231.417 320.465 235.378 329.325 243.185C337.893 250.7 346.462 258.157 354.972 265.73C351.591 264.739 349.143 262.234 346.229 260.429C340.575 256.933 333.58 254.428 327.285 252.389C313.178 247.845 298.198 246.156 284.092 251.457C274.241 255.185 265.439 261.128 257.162 267.594C251.566 271.963 246.262 276.624 240.841 281.168C218.807 299.984 197.473 319.384 176.139 339.016C171.768 343.094 167.687 346.822 163.898 350.201Z" fill="url(#paint8_linear_29_225)"/>
<path d="M325.201 384.191C325.9 384.832 326.541 385.414 327.182 385.997C326.483 385.414 325.725 384.774 325.026 384.133C325.084 384.133 325.142 384.191 325.201 384.191Z" fill="#4E4EB5"/>
<path d="M354.928 265.672C354.229 265.031 353.587 264.449 352.946 263.866C353.646 264.449 354.404 265.09 355.103 265.73C355.045 265.73 354.986 265.672 354.928 265.672Z" fill="#4E4EB5"/>
<path d="M140 348.395L154.456 320.433C158.244 317.112 162.325 313.384 166.696 309.364C188.03 289.732 212.248 260.947 236.469 240.232C254.248 225.027 268.764 212.695 294.178 216.073C306.069 217.705 315.277 224.252 324.137 232.058C337.019 243.418 355.788 259.322 385.05 287.809C393.677 299.693 397.385 306.088 398.026 306.962C362.761 272.066 343.547 255.71 329.208 243.127C320.348 235.32 314.752 231.359 302.803 229.728C277.389 226.349 254.306 247.321 236.469 262.526C214.436 281.343 193.102 300.742 171.768 320.374C153.873 336.861 140 348.395 140 348.395Z" fill="url(#paint9_linear_29_225)"/>
<path d="M185.002 466.501L202.197 409.235L236.588 304.316C240.086 293.946 243.525 284.683 246.964 276.469C250.403 273.498 253.9 270.585 257.514 267.789C265.733 261.323 274.593 255.322 284.386 251.652C298.55 246.292 313.531 248.04 327.637 252.526C333.932 254.565 340.927 257.07 346.581 260.623C349.495 262.429 351.944 264.876 355.324 265.867C355.383 265.925 355.441 265.983 355.441 265.983C325.305 255.439 304.496 277.168 282.346 343.289L247.955 448.208L226.97 517.999L185.002 466.501Z" fill="url(#paint10_linear_29_225)"/>
<defs>
<linearGradient id="paint0_linear_29_225" x1="264.668" y1="148.885" x2="455.006" y2="525.466" gradientUnits="userSpaceOnUse">
<stop stop-color="#071BB3"/>
<stop offset="1" stop-color="#0859F7"/>
</linearGradient>
<linearGradient id="paint1_linear_29_225" x1="511.19" y1="149.267" x2="486.613" y2="541.408" gradientUnits="userSpaceOnUse">
<stop stop-color="#1FB3FD"/>
<stop offset="0.291651" stop-color="#1888EA"/>
<stop offset="1" stop-color="#0725BE"/>
</linearGradient>
<linearGradient id="paint2_linear_29_225" x1="168.931" y1="500.637" x2="193.508" y2="108.497" gradientUnits="userSpaceOnUse">
<stop stop-color="#1FB3FD"/>
<stop offset="0.291651" stop-color="#1888EA"/>
<stop offset="1" stop-color="#0725BE"/>
</linearGradient>
<linearGradient id="paint3_linear_29_225" x1="495.345" y1="178.569" x2="410.211" y2="401.699" gradientUnits="userSpaceOnUse">
<stop stop-color="#22BCFE"/>
<stop offset="1" stop-color="#0A67EB"/>
</linearGradient>
<linearGradient id="paint4_linear_29_225" x1="409.662" y1="301.408" x2="409.662" y2="492.147" gradientUnits="userSpaceOnUse">
<stop stop-color="#0F76F9"/>
<stop offset="1" stop-color="#23C2FE"/>
</linearGradient>
<linearGradient id="paint5_linear_29_225" x1="409.809" y1="301.468" x2="375.779" y2="399.606" gradientUnits="userSpaceOnUse">
<stop stop-color="#199AFC"/>
<stop offset="1" stop-color="#22BDFE"/>
</linearGradient>
<linearGradient id="paint6_linear_29_225" x1="270.337" y1="348.453" x2="270.337" y2="157.714" gradientUnits="userSpaceOnUse">
<stop stop-color="#0F76F9"/>
<stop offset="1" stop-color="#23C2FE"/>
</linearGradient>
<linearGradient id="paint7_linear_29_225" x1="386.812" y1="481.292" x2="556.213" y2="249.476" gradientUnits="userSpaceOnUse">
<stop stop-color="#0047D1"/>
<stop offset="1" stop-color="#1587FD"/>
</linearGradient>
<linearGradient id="paint8_linear_29_225" x1="293.186" y1="168.571" x2="123.784" y2="400.386" gradientUnits="userSpaceOnUse">
<stop stop-color="#0047D1"/>
<stop offset="1" stop-color="#066FDC"/>
</linearGradient>
<linearGradient id="paint9_linear_29_225" x1="270.189" y1="348.395" x2="304.219" y2="250.257" gradientUnits="userSpaceOnUse">
<stop stop-color="#199AFC"/>
<stop offset="1" stop-color="#22BDFE"/>
</linearGradient>
<linearGradient id="paint10_linear_29_225" x1="185.002" y1="471.43" x2="270.136" y2="248.3" gradientUnits="userSpaceOnUse">
<stop stop-color="#22BCFE"/>
<stop offset="1" stop-color="#0A67EB"/>
</linearGradient>
</defs>
</svg>
