<svg width="1262" height="975" viewBox="0 0 1262 975" fill="none" xmlns="http://www.w3.org/2000/svg">
<path d="M572.937 352.415L572.995 352.297C595.157 285.287 615.978 263.187 646.072 273.883L646.131 273.883C657.795 284.578 672.259 298.169 690.338 316.31C693.371 320.801 696.404 325.292 699.378 329.842C713.375 346.21 728.131 369.315 749.127 376.642C768.606 383.438 779.571 364.706 791.76 353.36C802.724 343.138 811.939 335.751 811.939 335.751L807.332 345.619L766.973 432.011C754.726 457.775 731.397 508.534 696.404 498.962C678.616 494.116 664.677 478.575 654.237 464.275C627.118 426.87 600.056 389.643 572.937 352.415Z" fill="url(#paint0_linear_2017_85)"/>
<path d="M829.659 244.628C829.659 244.628 812.172 293.563 795.268 340.984V341.042C773.818 360.849 746.247 389.86 722.348 406.871C705.036 419.222 685.159 437.805 662.601 428.484C651.526 423.882 649.369 422.717 640.567 414.911C637.944 412.639 618.475 394.404 615.969 392.016C646.105 402.56 666.914 380.831 689.064 314.71L723.455 209.791L744.381 140L829.659 244.628Z" fill="url(#paint1_linear_2017_85)"/>
<path d="M432.462 421.276C432.462 421.276 449.949 372.341 466.853 324.921L466.853 324.862C488.304 305.055 515.875 276.044 539.774 259.033C557.086 246.683 576.962 228.099 599.52 237.42C610.596 242.022 612.752 243.187 621.554 250.994C624.177 253.266 643.646 271.5 646.152 273.888C616.016 263.344 595.207 285.074 573.057 351.194L538.666 456.113L517.74 525.904L432.462 421.276Z" fill="url(#paint2_linear_2017_85)"/>
<path d="M786.345 191.498L769.149 248.764L734.758 353.683C731.261 364.053 727.822 373.316 724.383 381.53C720.944 384.501 717.446 387.414 713.832 390.21C705.614 396.676 696.753 402.677 686.961 406.347C672.796 411.707 657.816 409.959 643.71 405.473C637.415 403.434 630.42 400.929 624.766 397.376C621.851 395.57 619.403 393.123 616.022 392.132C615.964 392.074 615.906 392.016 615.906 392.016C646.041 402.56 666.851 380.831 689.001 314.71L723.392 209.791L744.376 140L786.345 191.498Z" fill="url(#paint3_linear_2017_85)"/>
<path d="M830.881 309.408L760.059 446.194C748.517 473.166 726.95 505.964 697.397 499.265C679.386 495.187 665.164 479.23 654.847 465.133C643.48 449.578 570.442 348.964 570.442 348.964C605.708 383.918 627.333 402.094 641.672 414.735C650.532 422.542 656.128 426.503 668.078 428.076C693.492 431.455 716.633 410.541 734.411 395.336C756.445 376.519 777.779 357.062 799.113 337.429C817.008 320.943 830.881 309.408 830.881 309.408Z" fill="url(#paint4_linear_2017_85)"/>
<path d="M830.999 309.468L816.543 337.431C812.754 340.751 808.674 344.48 804.302 348.499C782.968 368.132 758.751 396.916 734.53 417.631C716.751 432.836 702.235 445.169 676.821 441.79C664.93 440.159 655.722 433.612 646.862 425.805C633.98 414.445 615.211 398.541 585.949 370.054C577.322 358.17 571.26 349.898 570.619 349.024C605.884 383.919 627.451 402.153 641.791 414.737C650.651 422.543 656.246 426.504 668.196 428.135C693.61 431.514 716.693 410.542 734.53 395.337C756.563 376.521 777.897 357.121 799.231 337.489C817.126 321.002 830.999 309.468 830.999 309.468Z" fill="url(#paint5_linear_2017_85)"/>
<path d="M431.116 356.453L501.938 219.668C513.479 192.695 535.046 159.897 564.599 166.596C582.611 170.674 596.309 186.811 606.626 200.909C617.993 216.464 692.312 318.152 692.312 318.152C657.047 283.198 634.664 263.768 620.324 251.126C611.464 243.32 605.869 239.358 593.919 237.785C568.505 234.407 545.364 255.32 527.585 270.525C505.552 289.342 484.218 308.8 462.884 328.432C444.989 344.918 431.116 356.453 431.116 356.453Z" fill="url(#paint6_linear_2017_85)"/>
<path d="M616.201 392.191C616.9 392.832 617.541 393.414 618.182 393.997C617.483 393.414 616.725 392.774 616.026 392.133C616.084 392.133 616.142 392.191 616.201 392.191Z" fill="#FF5215"/>
<path d="M645.928 273.672C645.229 273.031 644.587 272.449 643.946 271.866C644.646 272.449 645.404 273.09 646.103 273.73C646.045 273.73 645.986 273.672 645.928 273.672Z" fill="#FF5215"/>
<path d="M807.099 307.661C803.31 318.38 799.289 329.682 795.267 340.984C775.215 359.393 755.105 377.568 734.412 395.278C716.575 410.483 693.493 431.455 668.078 428.077C656.129 426.445 650.533 422.484 641.673 414.678C633.105 407.163 624.536 399.706 616.026 392.132C619.406 393.123 621.855 395.628 624.769 397.434C630.423 400.929 637.418 403.434 643.713 405.473C657.819 410.017 672.8 411.707 686.906 406.405C696.757 402.677 705.559 396.735 713.836 390.268C719.432 385.899 724.736 381.239 730.157 376.695C752.19 357.878 773.524 338.479 794.858 318.846C799.23 314.768 803.31 311.04 807.099 307.661Z" fill="url(#paint7_linear_2017_85)"/>
<path d="M454.898 358.201C458.687 347.482 462.709 336.18 466.731 324.879C486.783 306.47 506.893 288.294 527.586 270.584C545.422 255.379 568.505 234.407 593.919 237.786C605.869 239.417 611.465 243.378 620.325 251.185C628.893 258.7 637.462 266.157 645.972 273.73C642.591 272.739 640.143 270.234 637.229 268.429C631.575 264.933 624.58 262.428 618.285 260.389C604.178 255.845 589.198 254.156 575.092 259.457C565.241 263.185 556.439 269.128 548.162 275.594C542.566 279.963 537.262 284.624 531.841 289.168C509.807 307.984 488.473 327.384 467.139 347.016C462.768 351.094 458.687 354.822 454.898 358.201Z" fill="url(#paint8_linear_2017_85)"/>
<path d="M616.201 392.191C616.9 392.832 617.541 393.414 618.182 393.997C617.483 393.414 616.725 392.774 616.026 392.133C616.084 392.133 616.142 392.191 616.201 392.191Z" fill="#4E4EB5"/>
<path d="M645.928 273.672C645.229 273.031 644.587 272.449 643.946 271.866C644.646 272.449 645.404 273.09 646.103 273.73C646.045 273.73 645.986 273.672 645.928 273.672Z" fill="#4E4EB5"/>
<path d="M431 356.395L445.456 328.433C449.244 325.112 453.325 321.384 457.696 317.364C479.03 297.732 503.248 268.947 527.469 248.232C545.248 233.027 559.764 220.695 585.178 224.073C597.069 225.705 606.277 232.252 615.137 240.058C628.019 251.418 646.788 267.322 676.05 295.809C684.677 307.693 688.385 314.088 689.026 314.962C653.761 280.066 634.547 263.71 620.208 251.127C611.348 243.32 605.752 239.359 593.803 237.728C568.389 234.349 545.306 255.321 527.469 270.526C505.436 289.343 484.102 308.742 462.768 328.374C444.873 344.861 431 356.395 431 356.395Z" fill="url(#paint9_linear_2017_85)"/>
<path d="M476.002 474.501L493.197 417.235L527.588 312.316C531.086 301.946 534.525 292.683 537.964 284.469C541.403 281.498 544.9 278.585 548.514 275.789C556.733 269.323 565.593 263.322 575.386 259.652C589.55 254.292 604.531 256.04 618.637 260.526C624.932 262.565 631.927 265.07 637.581 268.623C640.495 270.429 642.944 272.876 646.324 273.867C646.383 273.925 646.441 273.983 646.441 273.983C616.305 263.439 595.496 285.168 573.346 351.289L538.955 456.208L517.971 525.999L476.002 474.501Z" fill="url(#paint10_linear_2017_85)"/>
<path d="M156.6 791V642H173L258.6 762.4L251.2 763.2V642H271V791H254.6L169.4 669.8L176.2 669V791H156.6ZM294.056 791V683.2H312.656V791H294.056ZM294.056 666V642H312.656V666H294.056ZM377.317 792.2C366.784 792.2 358.651 789.2 352.917 783.2C347.317 777.2 344.517 768.733 344.517 757.8V701H324.917V683.2H328.917C333.717 683.2 337.517 681.733 340.317 678.8C343.117 675.867 344.517 672 344.517 667.2V658.4H363.117V683.2H387.317V701H363.117V757.2C363.117 760.8 363.651 763.933 364.717 766.6C365.917 769.267 367.851 771.4 370.517 773C373.184 774.467 376.717 775.2 381.117 775.2C382.051 775.2 383.184 775.133 384.517 775C385.984 774.867 387.317 774.733 388.517 774.6V791C386.784 791.4 384.851 791.667 382.717 791.8C380.584 792.067 378.784 792.2 377.317 792.2ZM404.814 791V683.2H423.014V703L421.014 700.2C423.547 694.067 427.414 689.533 432.614 686.6C437.814 683.533 444.147 682 451.614 682H458.214V699.6H448.814C441.214 699.6 435.081 702 430.414 706.8C425.747 711.467 423.414 718.133 423.414 726.8V791H404.814ZM517.936 793.4C507.536 793.4 498.136 791 489.736 786.2C481.336 781.267 474.669 774.533 469.736 766C464.803 757.467 462.336 747.8 462.336 737C462.336 726.2 464.736 716.6 469.536 708.2C474.469 699.8 481.136 693.133 489.536 688.2C497.936 683.267 507.403 680.8 517.936 680.8C528.336 680.8 537.736 683.267 546.136 688.2C554.536 693 561.136 699.6 565.936 708C570.869 716.4 573.336 726.067 573.336 737C573.336 747.933 570.803 757.667 565.736 766.2C560.669 774.6 553.936 781.267 545.536 786.2C537.269 791 528.069 793.4 517.936 793.4ZM517.936 775.4C524.603 775.4 530.603 773.733 535.936 770.4C541.403 767.067 545.669 762.467 548.736 756.6C551.936 750.733 553.536 744.2 553.536 737C553.536 729.667 551.936 723.2 548.736 717.6C545.669 711.867 541.403 707.333 535.936 704C530.603 700.533 524.603 698.8 517.936 698.8C511.136 698.8 505.003 700.533 499.536 704C494.203 707.333 489.936 711.867 486.736 717.6C483.536 723.2 481.936 729.667 481.936 737C481.936 744.2 483.536 750.733 486.736 756.6C489.936 762.467 494.203 767.067 499.536 770.4C505.003 773.733 511.136 775.4 517.936 775.4ZM577.395 791L630.795 642H653.995L707.395 791H686.395L674.195 756H610.595L598.395 791H577.395ZM616.795 738H667.995L639.595 656.2H645.195L616.795 738ZM763.464 835C755.864 835 748.797 833.8 742.264 831.4C735.864 829 730.331 825.667 725.664 821.4C721.131 817.267 717.664 812.4 715.264 806.8L732.664 798.8C734.531 803.867 738.064 808.133 743.264 811.6C748.597 815.2 755.264 817 763.264 817C769.397 817 774.931 815.8 779.864 813.4C784.931 811.133 788.931 807.667 791.864 803C794.797 798.467 796.264 792.933 796.264 786.4V762.2L799.664 765.8C795.931 773.133 790.531 778.733 783.464 782.6C776.531 786.467 768.864 788.4 760.464 788.4C750.331 788.4 741.264 786.067 733.264 781.4C725.264 776.6 718.997 770.133 714.464 762C709.931 753.733 707.664 744.6 707.664 734.6C707.664 724.467 709.931 715.333 714.464 707.2C718.997 699.067 725.197 692.667 733.064 688C741.064 683.2 750.131 680.8 760.264 680.8C768.664 680.8 776.264 682.733 783.064 686.6C789.997 690.333 795.531 695.533 799.664 702.2L796.864 707.2V683.2H815.064V786.4C815.064 795.733 812.864 804.067 808.464 811.4C804.064 818.733 797.931 824.467 790.064 828.6C782.331 832.867 773.464 835 763.464 835ZM762.064 770.4C768.464 770.4 774.197 768.8 779.264 765.6C784.464 762.4 788.597 758.133 791.664 752.8C794.731 747.333 796.264 741.267 796.264 734.6C796.264 728.067 794.731 722.067 791.664 716.6C788.597 711.133 784.464 706.8 779.264 703.6C774.197 700.4 768.464 698.8 762.064 698.8C755.531 698.8 749.597 700.4 744.264 703.6C738.931 706.8 734.731 711.133 731.664 716.6C728.731 721.933 727.264 727.933 727.264 734.6C727.264 741.267 728.731 747.333 731.664 752.8C734.731 758.133 738.864 762.4 744.064 765.6C749.397 768.8 755.397 770.4 762.064 770.4ZM835.9 791V683.2H854.5V791H835.9ZM835.9 666V642H854.5V666H835.9ZM875.361 791V639.6H893.961V791H875.361ZM914.822 791V683.2H933.422V791H914.822ZM914.822 666V642H933.422V666H914.822ZM998.083 792.2C987.549 792.2 979.416 789.2 973.683 783.2C968.083 777.2 965.283 768.733 965.283 757.8V701H945.683V683.2H949.683C954.483 683.2 958.283 681.733 961.083 678.8C963.883 675.867 965.283 672 965.283 667.2V658.4H983.883V683.2H1008.08V701H983.883V757.2C983.883 760.8 984.416 763.933 985.483 766.6C986.683 769.267 988.616 771.4 991.283 773C993.949 774.467 997.483 775.2 1001.88 775.2C1002.82 775.2 1003.95 775.133 1005.28 775C1006.75 774.867 1008.08 774.733 1009.28 774.6V791C1007.55 791.4 1005.62 791.667 1003.48 791.8C1001.35 792.067 999.549 792.2 998.083 792.2ZM1031.38 835C1028.98 835 1026.58 834.8 1024.18 834.4C1021.78 834.133 1019.51 833.533 1017.38 832.6V816C1018.85 816.133 1020.65 816.4 1022.78 816.8C1025.05 817.2 1027.25 817.4 1029.38 817.4C1035.65 817.4 1040.38 816 1043.58 813.2C1046.91 810.4 1050.05 805.667 1052.98 799L1059.78 782.8L1059.38 799L1013.38 683.2H1033.58L1069.38 775.2H1063.38L1098.98 683.2H1119.58L1070.98 803.8C1068.71 809.533 1065.78 814.8 1062.18 819.6C1058.71 824.4 1054.45 828.133 1049.38 830.8C1044.31 833.6 1038.31 835 1031.38 835Z" fill="#0A0D3F"/>
<defs>
<linearGradient id="paint0_linear_2017_85" x1="555.668" y1="156.885" x2="746.006" y2="533.466" gradientUnits="userSpaceOnUse">
<stop stop-color="#071BB3"/>
<stop offset="1" stop-color="#0859F7"/>
</linearGradient>
<linearGradient id="paint1_linear_2017_85" x1="802.19" y1="157.267" x2="777.613" y2="549.408" gradientUnits="userSpaceOnUse">
<stop stop-color="#1FB3FD"/>
<stop offset="0.291651" stop-color="#1888EA"/>
<stop offset="1" stop-color="#0725BE"/>
</linearGradient>
<linearGradient id="paint2_linear_2017_85" x1="459.931" y1="508.637" x2="484.508" y2="116.497" gradientUnits="userSpaceOnUse">
<stop stop-color="#1FB3FD"/>
<stop offset="0.291651" stop-color="#1888EA"/>
<stop offset="1" stop-color="#0725BE"/>
</linearGradient>
<linearGradient id="paint3_linear_2017_85" x1="786.345" y1="186.569" x2="701.211" y2="409.699" gradientUnits="userSpaceOnUse">
<stop stop-color="#22BCFE"/>
<stop offset="1" stop-color="#0A67EB"/>
</linearGradient>
<linearGradient id="paint4_linear_2017_85" x1="700.661" y1="309.408" x2="700.661" y2="500.147" gradientUnits="userSpaceOnUse">
<stop stop-color="#0F76F9"/>
<stop offset="1" stop-color="#23C2FE"/>
</linearGradient>
<linearGradient id="paint5_linear_2017_85" x1="700.809" y1="309.468" x2="666.779" y2="407.606" gradientUnits="userSpaceOnUse">
<stop stop-color="#199AFC"/>
<stop offset="1" stop-color="#22BDFE"/>
</linearGradient>
<linearGradient id="paint6_linear_2017_85" x1="561.337" y1="356.453" x2="561.337" y2="165.714" gradientUnits="userSpaceOnUse">
<stop stop-color="#0F76F9"/>
<stop offset="1" stop-color="#23C2FE"/>
</linearGradient>
<linearGradient id="paint7_linear_2017_85" x1="677.812" y1="489.292" x2="847.213" y2="257.476" gradientUnits="userSpaceOnUse">
<stop stop-color="#0047D1"/>
<stop offset="1" stop-color="#1587FD"/>
</linearGradient>
<linearGradient id="paint8_linear_2017_85" x1="584.186" y1="176.571" x2="414.784" y2="408.386" gradientUnits="userSpaceOnUse">
<stop stop-color="#0047D1"/>
<stop offset="1" stop-color="#066FDC"/>
</linearGradient>
<linearGradient id="paint9_linear_2017_85" x1="561.189" y1="356.395" x2="595.219" y2="258.257" gradientUnits="userSpaceOnUse">
<stop stop-color="#199AFC"/>
<stop offset="1" stop-color="#22BDFE"/>
</linearGradient>
<linearGradient id="paint10_linear_2017_85" x1="476.002" y1="479.43" x2="561.136" y2="256.3" gradientUnits="userSpaceOnUse">
<stop stop-color="#22BCFE"/>
<stop offset="1" stop-color="#0A67EB"/>
</linearGradient>
</defs>
</svg>
